{
  "accessors": [
    {
      "bufferView": 0,
      "componentType": 5125,
      "count": 21342,
      "type": "SCALAR"
    },
    {
      "bufferView": 1,
      "componentType": 5126,
      "count": 3825,
      "max": [
        0.157978266477585,
        0.186229288578033,
        1.0
      ],
      "min": [
        -0.157921120524406,
        -0.203964903950691,
        0.180192515254021
      ],
      "type": "VEC3"
    },
    {
      "bufferView": 2,
      "componentType": 5126,
      "count": 3825,
      "type": "VEC3"
    },
    {
      "bufferView": 3,
      "componentType": 5126,
      "count": 3825,
      "type": "VEC2"
    },
    {
      "bufferView": 4,
      "componentType": 5125,
      "count": 4176,
      "type": "SCALAR"
    },
    {
      "bufferView": 5,
      "componentType": 5126,
      "count": 829,
      "max": [
        0.130353301763535,
        -0.118374988436699,
        0.882855415344238
      ],
      "min": [
        -0.130404531955719,
        -0.202581033110619,
        0.679113984107971
      ],
      "type": "VEC3"
    },
    {
      "bufferView": 6,
      "componentType": 5126,
      "count": 829,
      "type": "VEC3"
    },
    {
      "bufferView": 7,
      "componentType": 5126,
      "count": 829,
      "type": "VEC2"
    },
    {
      "bufferView": 8,
      "componentType": 5125,
      "count": 4620,
      "type": "SCALAR"
    },
    {
      "bufferView": 9,
      "componentType": 5126,
      "count": 828,
      "max": [
        0.120136842131615,
        0.215647324919701,
        0.81070077419281
      ],
      "min": [
        -0.119792528450489,
        0.0789518654346466,
        0.691572606563568
      ],
      "type": "VEC3"
    },
    {
      "bufferView": 10,
      "componentType": 5126,
      "count": 828,
      "type": "VEC3"
    },
    {
      "bufferView": 11,
      "componentType": 5126,
      "count": 828,
      "type": "VEC2"
    },
    {
      "bufferView": 12,
      "componentType": 5125,
      "count": 3324,
      "type": "SCALAR"
    },
    {
      "bufferView": 13,
      "componentType": 5126,
      "count": 668,
      "max": [
        0.201871365308762,
        -0.15745697915554,
        0.59727817773819
      ],
      "min": [
        -0.2018713504076,
        -0.215647324919701,
        0.397738069295883
      ],
      "type": "VEC3"
    },
    {
      "bufferView": 14,
      "componentType": 5126,
      "count": 668,
      "type": "VEC3"
    },
    {
      "bufferView": 15,
      "componentType": 5126,
      "count": 668,
      "type": "VEC2"
    },
    {
      "bufferView": 16,
      "componentType": 5125,
      "count": 5664,
      "type": "SCALAR"
    },
    {
      "bufferView": 17,
      "componentType": 5126,
      "count": 1015,
      "max": [
        0.0426433309912682,
        -0.0870405286550522,
        0.209740087389946
      ],
      "min": [
        -0.0425983518362045,
        -0.174151033163071,
        -1.0
      ],
      "type": "VEC3"
    },
    {
      "bufferView": 18,
      "componentType": 5126,
      "count": 1015,
      "type": "VEC3"
    },
    {
      "bufferView": 19,
      "componentType": 5126,
      "count": 1015,
      "type": "VEC2"
    }
  ],
  "asset": {
    "generator": "Substance Painter 2019.2.2",
    "version": "2.0"
  },
  "bufferViews": [
    {
      "buffer": 0,
      "byteLength": 85368,
      "target": 34963
    },
    {
      "buffer": 0,
      "byteLength": 45900,
      "byteOffset": 85368,
      "target": 34962
    },
    {
      "buffer": 0,
      "byteLength": 45900,
      "byteOffset": 131268,
      "target": 34962
    },
    {
      "buffer": 0,
      "byteLength": 30600,
      "byteOffset": 177168,
      "target": 34962
    },
    {
      "buffer": 0,
      "byteLength": 16704,
      "byteOffset": 207768,
      "target": 34963
    },
    {
      "buffer": 0,
      "byteLength": 9948,
      "byteOffset": 224472,
      "target": 34962
    },
    {
      "buffer": 0,
      "byteLength": 9948,
      "byteOffset": 234420,
      "target": 34962
    },
    {
      "buffer": 0,
      "byteLength": 6632,
      "byteOffset": 244368,
      "target": 34962
    },
    {
      "buffer": 0,
      "byteLength": 18480,
      "byteOffset": 251000,
      "target": 34963
    },
    {
      "buffer": 0,
      "byteLength": 9936,
      "byteOffset": 269480,
      "target": 34962
    },
    {
      "buffer": 0,
      "byteLength": 9936,
      "byteOffset": 279416,
      "target": 34962
    },
    {
      "buffer": 0,
      "byteLength": 6624,
      "byteOffset": 289352,
      "target": 34962
    },
    {
      "buffer": 0,
      "byteLength": 13296,
      "byteOffset": 295976,
      "target": 34963
    },
    {
      "buffer": 0,
      "byteLength": 8016,
      "byteOffset": 309272,
      "target": 34962
    },
    {
      "buffer": 0,
      "byteLength": 8016,
      "byteOffset": 317288,
      "target": 34962
    },
    {
      "buffer": 0,
      "byteLength": 5344,
      "byteOffset": 325304,
      "target": 34962
    },
    {
      "buffer": 0,
      "byteLength": 22656,
      "byteOffset": 330648,
      "target": 34963
    },
    {
      "buffer": 0,
      "byteLength": 12180,
      "byteOffset": 353304,
      "target": 34962
    },
    {
      "buffer": 0,
      "byteLength": 12180,
      "byteOffset": 365484,
      "target": 34962
    },
    {
      "buffer": 0,
      "byteLength": 8120,
      "byteOffset": 377664,
      "target": 34962
    }
  ],
  "buffers": [
    {
      "byteLength": 385784,
      "uri": "mat.bin"
    }
  ],
  "images": [
    {
      "uri": "1001_baseColor.png"
    },
    {
      "uri": "1001_occlusionRoughnessMetallic.png"
    },
    {
      "uri": "1001_normal.png"
    }
  ],
  "materials": [
    {
      "alphaMode": "OPAQUE",
      "name": "1001",
      "normalTexture": {
        "index": 2
      },
      "occlusionTexture": {
        "index": 1
      },
      "pbrMetallicRoughness": {
        "baseColorTexture": {
          "index": 0
        },
        "metallicRoughnessTexture": {
          "index": 1
        }
      }
    }
  ],
  "meshes": [
    {
      "name": "Group1844_1001",
      "primitives": [
        {
          "attributes": {
            "NORMAL": 2,
            "POSITION": 1,
            "TEXCOORD_0": 3
          },
          "indices": 0,
          "material": 0,
          "mode": 4
        }
      ]
    },
    {
      "name": "Group26799_1001",
      "primitives": [
        {
          "attributes": {
            "NORMAL": 6,
            "POSITION": 5,
            "TEXCOORD_0": 7
          },
          "indices": 4,
          "material": 0,
          "mode": 4
        }
      ]
    },
    {
      "name": "Group60810_1001",
      "primitives": [
        {
          "attributes": {
            "NORMAL": 10,
            "POSITION": 9,
            "TEXCOORD_0": 11
          },
          "indices": 8,
          "material": 0,
          "mode": 4
        }
      ]
    },
    {
      "name": "Group59668_1001",
      "primitives": [
        {
          "attributes": {
            "NORMAL": 14,
            "POSITION": 13,
            "TEXCOORD_0": 15
          },
          "indices": 12,
          "material": 0,
          "mode": 4
        }
      ]
    },
    {
      "name": "Group42184_1001",
      "primitives": [
        {
          "attributes": {
            "NORMAL": 18,
            "POSITION": 17,
            "TEXCOORD_0": 19
          },
          "indices": 16,
          "material": 0,
          "mode": 4
        }
      ]
    }
  ],
  "nodes": [
    {
      "children": [
        1,
        3,
        5,
        7,
        9
      ],
      "name": "mat.OBJ",
      "scale": [
        3.14720630645752,
        3.14720630645752,
        3.14720630645752
      ],
      "translation": [
        -7.42077827453613e-05,
        0.00296932458877563,
        -1.97359228134155
      ]
    },
    {
      "children": [
        2
      ],
      "name": "g Group1844"
    },
    {
      "mesh": 0,
      "name": "Group1844_1001"
    },
    {
      "children": [
        4
      ],
      "name": "g Group26799"
    },
    {
      "mesh": 1,
      "name": "Group26799_1001"
    },
    {
      "children": [
        6
      ],
      "name": "g Group60810"
    },
    {
      "mesh": 2,
      "name": "Group60810_1001"
    },
    {
      "children": [
        8
      ],
      "name": "g Group59668"
    },
    {
      "mesh": 3,
      "name": "Group59668_1001"
    },
    {
      "children": [
        10
      ],
      "name": "g Group42184"
    },
    {
      "mesh": 4,
      "name": "Group42184_1001"
    }
  ],
  "samplers": [
    {
      "magFilter": 9729,
      "minFilter": 9985,
      "wrapS": 10497,
      "wrapT": 10497
    }
  ],
  "scene": 0,
  "scenes": [
    {
      "name": "Scene",
      "nodes": [
        0
      ]
    }
  ],
  "textures": [
    {
      "sampler": 0,
      "source": 0
    },
    {
      "sampler": 0,
      "source": 1
    },
    {
      "sampler": 0,
      "source": 2
    }
  ]
}