{
  "accessors": [
    {
      "bufferView": 0,
      "componentType": 5125,
      "count": 34626,
      "type": "SCALAR"
    },
    {
      "bufferView": 1,
      "componentType": 5126,
      "count": 6432,
      "max": [
        -0.28515625,
        0.442093133926392,
        0.154426798224449
      ],
      "min": [
        -1.0,
        0.0487213097512722,
        -0.154991149902344
      ],
      "type": "VEC3"
    },
    {
      "bufferView": 2,
      "componentType": 5126,
      "count": 6432,
      "type": "VEC3"
    },
    {
      "bufferView": 3,
      "componentType": 5126,
      "count": 6432,
      "type": "VEC2"
    },
    {
      "bufferView": 4,
      "componentType": 5125,
      "count": 6321,
      "type": "SCALAR"
    },
    {
      "bufferView": 5,
      "componentType": 5126,
      "count": 1150,
      "max": [
        0.4918212890625,
        -0.234894275665283,
        -0.0531840249896049
      ],
      "min": [
        0.277740955352783,
        -0.442093133926392,
        -0.183692678809166
      ],
      "type": "VEC3"
    },
    {
      "bufferView": 6,
      "componentType": 5126,
      "count": 1150,
      "type": "VEC3"
    },
    {
      "bufferView": 7,
      "componentType": 5126,
      "count": 1150,
      "type": "VEC2"
    },
    {
      "bufferView": 8,
      "componentType": 5125,
      "count": 5337,
      "type": "SCALAR"
    },
    {
      "bufferView": 9,
      "componentType": 5126,
      "count": 960,
      "max": [
        -0.214187860488892,
        -0.283645629882813,
        -0.0417246744036674
      ],
      "min": [
        -0.407287836074829,
        -0.442001581192017,
        -0.173179149627686
      ],
      "type": "VEC3"
    },
    {
      "bufferView": 10,
      "componentType": 5126,
      "count": 960,
      "type": "VEC3"
    },
    {
      "bufferView": 11,
      "componentType": 5126,
      "count": 960,
      "type": "VEC2"
    },
    {
      "bufferView": 12,
      "componentType": 5125,
      "count": 11106,
      "type": "SCALAR"
    },
    {
      "bufferView": 13,
      "componentType": 5126,
      "count": 2037,
      "max": [
        0.590026617050171,
        0.424881458282471,
        0.275733709335327
      ],
      "min": [
        -0.488037347793579,
        -0.223037481307983,
        -0.275733709335327
      ],
      "type": "VEC3"
    },
    {
      "bufferView": 14,
      "componentType": 5126,
      "count": 2037,
      "type": "VEC3"
    },
    {
      "bufferView": 15,
      "componentType": 5126,
      "count": 2037,
      "type": "VEC2"
    },
    {
      "bufferView": 16,
      "componentType": 5125,
      "count": 1134,
      "type": "SCALAR"
    },
    {
      "bufferView": 17,
      "componentType": 5126,
      "count": 213,
      "max": [
        1.0,
        0.280136346817017,
        0.0268478337675333
      ],
      "min": [
        0.528687238693237,
        0.21905517578125,
        -0.0274121761322021
      ],
      "type": "VEC3"
    },
    {
      "bufferView": 18,
      "componentType": 5126,
      "count": 213,
      "type": "VEC3"
    },
    {
      "bufferView": 19,
      "componentType": 5126,
      "count": 213,
      "type": "VEC2"
    },
    {
      "bufferView": 20,
      "componentType": 5125,
      "count": 3186,
      "type": "SCALAR"
    },
    {
      "bufferView": 21,
      "componentType": 5126,
      "count": 596,
      "max": [
        -0.158462762832642,
        0.117889635264874,
        -0.0253364946693182
      ],
      "min": [
        -0.456299543380737,
        -0.294235467910767,
        -0.239783748984337
      ],
      "type": "VEC3"
    },
    {
      "bufferView": 22,
      "componentType": 5126,
      "count": 596,
      "type": "VEC3"
    },
    {
      "bufferView": 23,
      "componentType": 5126,
      "count": 596,
      "type": "VEC2"
    },
    {
      "bufferView": 24,
      "componentType": 5125,
      "count": 3450,
      "type": "SCALAR"
    },
    {
      "bufferView": 25,
      "componentType": 5126,
      "count": 628,
      "max": [
        0.587249517440796,
        0.190719842910767,
        -0.0233538150787354
      ],
      "min": [
        0.248260736465454,
        -0.258834600448608,
        -0.247993230819702
      ],
      "type": "VEC3"
    },
    {
      "bufferView": 26,
      "componentType": 5126,
      "count": 628,
      "type": "VEC3"
    },
    {
      "bufferView": 27,
      "componentType": 5126,
      "count": 628,
      "type": "VEC2"
    },
    {
      "bufferView": 28,
      "componentType": 5125,
      "count": 6321,
      "type": "SCALAR"
    },
    {
      "bufferView": 29,
      "componentType": 5126,
      "count": 1122,
      "max": [
        0.4918212890625,
        -0.234894275665283,
        0.183128356933594
      ],
      "min": [
        0.277740955352783,
        -0.442093133926392,
        0.0526196956634521
      ],
      "type": "VEC3"
    },
    {
      "bufferView": 30,
      "componentType": 5126,
      "count": 1122,
      "type": "VEC3"
    },
    {
      "bufferView": 31,
      "componentType": 5126,
      "count": 1122,
      "type": "VEC2"
    },
    {
      "bufferView": 32,
      "componentType": 5125,
      "count": 5337,
      "type": "SCALAR"
    },
    {
      "bufferView": 33,
      "componentType": 5126,
      "count": 979,
      "max": [
        -0.214187860488892,
        -0.283645629882813,
        0.172615766525269
      ],
      "min": [
        -0.407287836074829,
        -0.442001581192017,
        0.0411603450775146
      ],
      "type": "VEC3"
    },
    {
      "bufferView": 34,
      "componentType": 5126,
      "count": 979,
      "type": "VEC3"
    },
    {
      "bufferView": 35,
      "componentType": 5126,
      "count": 979,
      "type": "VEC2"
    },
    {
      "bufferView": 36,
      "componentType": 5125,
      "count": 3186,
      "type": "SCALAR"
    },
    {
      "bufferView": 37,
      "componentType": 5126,
      "count": 613,
      "max": [
        -0.158462762832642,
        0.117889635264874,
        0.241247177124023
      ],
      "min": [
        -0.456299543380737,
        -0.294235467910767,
        0.0247733537107706
      ],
      "type": "VEC3"
    },
    {
      "bufferView": 38,
      "componentType": 5126,
      "count": 613,
      "type": "VEC3"
    },
    {
      "bufferView": 39,
      "componentType": 5126,
      "count": 613,
      "type": "VEC2"
    },
    {
      "bufferView": 40,
      "componentType": 5125,
      "count": 3450,
      "type": "SCALAR"
    },
    {
      "bufferView": 41,
      "componentType": 5126,
      "count": 628,
      "max": [
        0.587249517440796,
        0.190719842910767,
        0.247428879141808
      ],
      "min": [
        0.248260736465454,
        -0.258834600448608,
        0.0227894745767117
      ],
      "type": "VEC3"
    },
    {
      "bufferView": 42,
      "componentType": 5126,
      "count": 628,
      "type": "VEC3"
    },
    {
      "bufferView": 43,
      "componentType": 5126,
      "count": 628,
      "type": "VEC2"
    }
  ],
  "asset": {
    "generator": "Substance Painter 2019.2.2",
    "version": "2.0"
  },
  "bufferViews": [
    {
      "buffer": 0,
      "byteLength": 138504,
      "target": 34963
    },
    {
      "buffer": 0,
      "byteLength": 77184,
      "byteOffset": 138504,
      "target": 34962
    },
    {
      "buffer": 0,
      "byteLength": 77184,
      "byteOffset": 215688,
      "target": 34962
    },
    {
      "buffer": 0,
      "byteLength": 51456,
      "byteOffset": 292872,
      "target": 34962
    },
    {
      "buffer": 0,
      "byteLength": 25284,
      "byteOffset": 344328,
      "target": 34963
    },
    {
      "buffer": 0,
      "byteLength": 13800,
      "byteOffset": 369612,
      "target": 34962
    },
    {
      "buffer": 0,
      "byteLength": 13800,
      "byteOffset": 383412,
      "target": 34962
    },
    {
      "buffer": 0,
      "byteLength": 9200,
      "byteOffset": 397212,
      "target": 34962
    },
    {
      "buffer": 0,
      "byteLength": 21348,
      "byteOffset": 406412,
      "target": 34963
    },
    {
      "buffer": 0,
      "byteLength": 11520,
      "byteOffset": 427760,
      "target": 34962
    },
    {
      "buffer": 0,
      "byteLength": 11520,
      "byteOffset": 439280,
      "target": 34962
    },
    {
      "buffer": 0,
      "byteLength": 7680,
      "byteOffset": 450800,
      "target": 34962
    },
    {
      "buffer": 0,
      "byteLength": 44424,
      "byteOffset": 458480,
      "target": 34963
    },
    {
      "buffer": 0,
      "byteLength": 24444,
      "byteOffset": 502904,
      "target": 34962
    },
    {
      "buffer": 0,
      "byteLength": 24444,
      "byteOffset": 527348,
      "target": 34962
    },
    {
      "buffer": 0,
      "byteLength": 16296,
      "byteOffset": 551792,
      "target": 34962
    },
    {
      "buffer": 0,
      "byteLength": 4536,
      "byteOffset": 568088,
      "target": 34963
    },
    {
      "buffer": 0,
      "byteLength": 2556,
      "byteOffset": 572624,
      "target": 34962
    },
    {
      "buffer": 0,
      "byteLength": 2556,
      "byteOffset": 575180,
      "target": 34962
    },
    {
      "buffer": 0,
      "byteLength": 1704,
      "byteOffset": 577736,
      "target": 34962
    },
    {
      "buffer": 0,
      "byteLength": 12744,
      "byteOffset": 579440,
      "target": 34963
    },
    {
      "buffer": 0,
      "byteLength": 7152,
      "byteOffset": 592184,
      "target": 34962
    },
    {
      "buffer": 0,
      "byteLength": 7152,
      "byteOffset": 599336,
      "target": 34962
    },
    {
      "buffer": 0,
      "byteLength": 4768,
      "byteOffset": 606488,
      "target": 34962
    },
    {
      "buffer": 0,
      "byteLength": 13800,
      "byteOffset": 611256,
      "target": 34963
    },
    {
      "buffer": 0,
      "byteLength": 7536,
      "byteOffset": 625056,
      "target": 34962
    },
    {
      "buffer": 0,
      "byteLength": 7536,
      "byteOffset": 632592,
      "target": 34962
    },
    {
      "buffer": 0,
      "byteLength": 5024,
      "byteOffset": 640128,
      "target": 34962
    },
    {
      "buffer": 0,
      "byteLength": 25284,
      "byteOffset": 645152,
      "target": 34963
    },
    {
      "buffer": 0,
      "byteLength": 13464,
      "byteOffset": 670436,
      "target": 34962
    },
    {
      "buffer": 0,
      "byteLength": 13464,
      "byteOffset": 683900,
      "target": 34962
    },
    {
      "buffer": 0,
      "byteLength": 8976,
      "byteOffset": 697364,
      "target": 34962
    },
    {
      "buffer": 0,
      "byteLength": 21348,
      "byteOffset": 706340,
      "target": 34963
    },
    {
      "buffer": 0,
      "byteLength": 11748,
      "byteOffset": 727688,
      "target": 34962
    },
    {
      "buffer": 0,
      "byteLength": 11748,
      "byteOffset": 739436,
      "target": 34962
    },
    {
      "buffer": 0,
      "byteLength": 7832,
      "byteOffset": 751184,
      "target": 34962
    },
    {
      "buffer": 0,
      "byteLength": 12744,
      "byteOffset": 759016,
      "target": 34963
    },
    {
      "buffer": 0,
      "byteLength": 7356,
      "byteOffset": 771760,
      "target": 34962
    },
    {
      "buffer": 0,
      "byteLength": 7356,
      "byteOffset": 779116,
      "target": 34962
    },
    {
      "buffer": 0,
      "byteLength": 4904,
      "byteOffset": 786472,
      "target": 34962
    },
    {
      "buffer": 0,
      "byteLength": 13800,
      "byteOffset": 791376,
      "target": 34963
    },
    {
      "buffer": 0,
      "byteLength": 7536,
      "byteOffset": 805176,
      "target": 34962
    },
    {
      "buffer": 0,
      "byteLength": 7536,
      "byteOffset": 812712,
      "target": 34962
    },
    {
      "buffer": 0,
      "byteLength": 5024,
      "byteOffset": 820248,
      "target": 34962
    }
  ],
  "buffers": [
    {
      "byteLength": 825272,
      "uri": "test.bin"
    }
  ],
  "images": [
    {
      "uri": "1001_baseColor.png"
    },
    {
      "uri": "1001_occlusionRoughnessMetallic.png"
    },
    {
      "uri": "1001_normal.png"
    }
  ],
  "materials": [
    {
      "alphaMode": "OPAQUE",
      "name": "1001",
      "normalTexture": {
        "index": 2
      },
      "occlusionTexture": {
        "index": 1
      },
      "pbrMetallicRoughness": {
        "baseColorTexture": {
          "index": 0
        },
        "metallicRoughnessTexture": {
          "index": 1
        }
      }
    }
  ],
  "meshes": [
    {
      "name": "Group58346_1001",
      "primitives": [
        {
          "attributes": {
            "NORMAL": 2,
            "POSITION": 1,
            "TEXCOORD_0": 3
          },
          "indices": 0,
          "material": 0,
          "mode": 4
        }
      ]
    },
    {
      "name": "Group29118_1001",
      "primitives": [
        {
          "attributes": {
            "NORMAL": 6,
            "POSITION": 5,
            "TEXCOORD_0": 7
          },
          "indices": 4,
          "material": 0,
          "mode": 4
        }
      ]
    },
    {
      "name": "Group32466_1001",
      "primitives": [
        {
          "attributes": {
            "NORMAL": 10,
            "POSITION": 9,
            "TEXCOORD_0": 11
          },
          "indices": 8,
          "material": 0,
          "mode": 4
        }
      ]
    },
    {
      "name": "Group10793_1001",
      "primitives": [
        {
          "attributes": {
            "NORMAL": 14,
            "POSITION": 13,
            "TEXCOORD_0": 15
          },
          "indices": 12,
          "material": 0,
          "mode": 4
        }
      ]
    },
    {
      "name": "Group21566_1001",
      "primitives": [
        {
          "attributes": {
            "NORMAL": 18,
            "POSITION": 17,
            "TEXCOORD_0": 19
          },
          "indices": 16,
          "material": 0,
          "mode": 4
        }
      ]
    },
    {
      "name": "Group28176_1001",
      "primitives": [
        {
          "attributes": {
            "NORMAL": 22,
            "POSITION": 21,
            "TEXCOORD_0": 23
          },
          "indices": 20,
          "material": 0,
          "mode": 4
        }
      ]
    },
    {
      "name": "Group34293_1001",
      "primitives": [
        {
          "attributes": {
            "NORMAL": 26,
            "POSITION": 25,
            "TEXCOORD_0": 27
          },
          "indices": 24,
          "material": 0,
          "mode": 4
        }
      ]
    },
    {
      "name": "Group17981_1001",
      "primitives": [
        {
          "attributes": {
            "NORMAL": 30,
            "POSITION": 29,
            "TEXCOORD_0": 31
          },
          "indices": 28,
          "material": 0,
          "mode": 4
        }
      ]
    },
    {
      "name": "Group23648_1001",
      "primitives": [
        {
          "attributes": {
            "NORMAL": 34,
            "POSITION": 33,
            "TEXCOORD_0": 35
          },
          "indices": 32,
          "material": 0,
          "mode": 4
        }
      ]
    },
    {
      "name": "Group15311_1001",
      "primitives": [
        {
          "attributes": {
            "NORMAL": 38,
            "POSITION": 37,
            "TEXCOORD_0": 39
          },
          "indices": 36,
          "material": 0,
          "mode": 4
        }
      ]
    },
    {
      "name": "Group21040_1001",
      "primitives": [
        {
          "attributes": {
            "NORMAL": 42,
            "POSITION": 41,
            "TEXCOORD_0": 43
          },
          "indices": 40,
          "material": 0,
          "mode": 4
        }
      ]
    }
  ],
  "nodes": [
    {
      "children": [
        1,
        3,
        5,
        7,
        9,
        11,
        13,
        15,
        17,
        19,
        21
      ],
      "name": "Rhino_1.OBJ",
      "translation": [
        0.0,
        0.0069122314453125,
        -0.000823974609375
      ]
    },
    {
      "children": [
        2
      ],
      "name": "g Group58346"
    },
    {
      "mesh": 0,
      "name": "Group58346_1001"
    },
    {
      "children": [
        4
      ],
      "name": "g Group29118"
    },
    {
      "mesh": 1,
      "name": "Group29118_1001"
    },
    {
      "children": [
        6
      ],
      "name": "g Group32466"
    },
    {
      "mesh": 2,
      "name": "Group32466_1001"
    },
    {
      "children": [
        8
      ],
      "name": "g Group10793"
    },
    {
      "mesh": 3,
      "name": "Group10793_1001"
    },
    {
      "children": [
        10
      ],
      "name": "g Group21566"
    },
    {
      "mesh": 4,
      "name": "Group21566_1001"
    },
    {
      "children": [
        12
      ],
      "name": "g Group28176"
    },
    {
      "mesh": 5,
      "name": "Group28176_1001"
    },
    {
      "children": [
        14
      ],
      "name": "g Group34293"
    },
    {
      "mesh": 6,
      "name": "Group34293_1001"
    },
    {
      "children": [
        16
      ],
      "name": "g Group17981"
    },
    {
      "mesh": 7,
      "name": "Group17981_1001"
    },
    {
      "children": [
        18
      ],
      "name": "g Group23648"
    },
    {
      "mesh": 8,
      "name": "Group23648_1001"
    },
    {
      "children": [
        20
      ],
      "name": "g Group15311"
    },
    {
      "mesh": 9,
      "name": "Group15311_1001"
    },
    {
      "children": [
        22
      ],
      "name": "g Group21040"
    },
    {
      "mesh": 10,
      "name": "Group21040_1001"
    }
  ],
  "samplers": [
    {
      "magFilter": 9729,
      "minFilter": 9985,
      "wrapS": 10497,
      "wrapT": 10497
    }
  ],
  "scene": 0,
  "scenes": [
    {
      "name": "Scene",
      "nodes": [
        0
      ]
    }
  ],
  "textures": [
    {
      "sampler": 0,
      "source": 0
    },
    {
      "sampler": 0,
      "source": 1
    },
    {
      "sampler": 0,
      "source": 2
    }
  ]
}