<svg xmlns="http://www.w3.org/2000/svg" viewBox="0 0 617.12 340"><defs><style>.cls-1{fill:#ccc;}.cls-2,.cls-5{fill:#666;}.cls-3{font-size:69.82px;fill:#b3b3b3;font-family:DIN-Light, DIN Light;font-weight:300;}.cls-4{letter-spacing:-0.01em;}.cls-5{font-size:104.73px;font-family:DIN-Regular, DIN;}.cls-6{letter-spacing:-0.03em;}</style></defs><title>Asset 3</title><g id="Layer_2" data-name="Layer 2"><g id="Layer_1-2" data-name="Layer 1"><path class="cls-1" d="M.16,0s-3.93,61.07,27,93.5,60,59,60,59-1.45.52,7-7c9-8,12-11,12-11s-29-30-57-63S.16,0,.16,0Z"/><path class="cls-2" d="M240.16,340s-1-59.5-29-94.5-95-100-95-100-3,2-10,10-8,9-8,9,54,55,82,88S240.16,340,240.16,340Z"/><path class="cls-2" d="M225.5,171c-11.07,20.21-25.57,38.18-41.74,54.27-4,4-8.26,7.88-12.53,11.68s-8.7,7.4-13.23,10.87a229.91,229.91,0,0,1-28.6,18.89,151.49,151.49,0,0,1-31.7,13.41,83,83,0,0,1-17.16,3,46.19,46.19,0,0,1-17.64-2,33.4,33.4,0,0,1-4.22-1.73c-.68-.34-1.34-.76-2-1.13-.33-.2-.67-.38-1-.6l-.93-.68a20.68,20.68,0,0,1-1.82-1.42L51.25,274c-.54-.55-1-1.16-1.53-1.74a13.8,13.8,0,0,1-1.38-1.84,29.74,29.74,0,0,1-2.31-4c-.32-.69-.59-1.41-.88-2.11-.13-.35-.29-.7-.41-1.06l-.32-1.09a38.22,38.22,0,0,1-1.59-8.81A63.72,63.72,0,0,1,44.38,236a102.72,102.72,0,0,1,5.18-16.48A153.65,153.65,0,0,1,56.9,204q4.08-7.53,8.83-14.65c3.16-4.74,6.46-9.39,10-13.87s7.11-8.88,10.91-13.11a268.46,268.46,0,0,1,51.16-44.78,192.08,192.08,0,0,1,29.85-16.44,126.22,126.22,0,0,1,16.08-5.79,82.07,82.07,0,0,1,16.86-3.06c1.44-.06,2.87-.18,4.31-.13l2.16,0,2.15.18,1.08.08,1.08.17,2.14.33,2.12.51,1.05.26,1,.35a27,27,0,0,1,14,10,32,32,0,0,1,5.4,16.31,60.58,60.58,0,0,1-1.41,17l-1.4-.3a59,59,0,0,0,1.22-16.63,30.23,30.23,0,0,0-5.24-15.41,25.17,25.17,0,0,0-13.16-9.22l-1-.32-1-.23-2-.46-2-.3-1-.15-1-.07-2.07-.15h-2.08c-1.38,0-2.77.09-4.15.17a79.55,79.55,0,0,0-16.4,3.13,125.41,125.41,0,0,0-15.73,5.84,190.42,190.42,0,0,0-29.29,16.5,265.51,265.51,0,0,0-50.15,44.75c-3.7,4.22-7.24,8.58-10.64,13s-6.62,9-9.68,13.74-5.91,9.51-8.51,14.45a147.56,147.56,0,0,0-7,15.17,99.22,99.22,0,0,0-4.83,15.86,59.51,59.51,0,0,0-1.3,16.24,35.12,35.12,0,0,0,1.47,7.81l.29.94c.11.31.25.6.37.91.26.59.48,1.21.76,1.79a25.08,25.08,0,0,0,2,3.32,10.32,10.32,0,0,0,1.17,1.53c.43.48.83,1,1.28,1.44l1.42,1.29a15.86,15.86,0,0,0,1.53,1.17l.78.57c.26.18.56.32.83.48.57.31,1.11.66,1.69.95a29.11,29.11,0,0,0,3.63,1.43,41.4,41.4,0,0,0,15.85,1.58,78.81,78.81,0,0,0,16.12-3A146.73,146.73,0,0,0,126.8,262a224.85,224.85,0,0,0,27.73-18.71c4.41-3.44,8.66-7.06,12.85-10.76S175.61,225,179.53,221c15.68-15.89,29.67-33.62,40.14-53.19Z"/><circle class="cls-1" cx="229.16" cy="152.5" r="8"/><path class="cls-1" d="M229.16,149.5a3,3,0,1,1-3,3,3,3,0,0,1,3-3m0-10a13,13,0,1,0,13,13,13,13,0,0,0-13-13Z"/><path class="cls-2" d="M101.29,165.49c-2,2.16-3.94,4.39-5.84,6.64s-3.75,4.56-5.44,6.93l-1.69-1.12c1.61-2.55,3.37-5,5.16-7.37s3.64-4.73,5.55-7.06Z"/><path class="cls-1" d="M118.68,123c-2.28,1.9-4.54,3.85-6.74,5.84s-4.36,4-6.35,6.16l-1.94-1.92c2.23-2.09,4.55-4,6.89-5.89s4.74-3.68,7.17-5.46Z"/><text class="cls-3" transform="translate(322.57 139.8)">gene<tspan class="cls-4" x="149.76" y="0">r</tspan><tspan x="177.61" y="0">al</tspan></text><text class="cls-5" transform="translate(262.3 224.57) rotate(0.14)">su<tspan class="cls-6" x="110.8" y="0">r</tspan><tspan x="151.33" y="0">gery</tspan></text><text/></g></g></svg>